<svg xmlns="http://www.w3.org/2000/svg" viewBox="0 0 925 232" width="925" height="232" fill="none"><g transform="translate(8,8) scale(0.421875)"><rect x="0" y="0" width="512" height="512" rx="116" fill="#14131A"/><path d="M170.09 231.06Q165.78 223.12 157.72 218.92Q149.66 214.72 138.77 214.72Q119.93 214.72 108.58 227.09Q97.24 239.46 97.24 260.11Q97.24 282.13 109.15 294.50Q121.07 306.87 141.95 306.87Q156.24 306.87 166.12 299.60Q175.99 292.34 180.53 278.72H131.28V250.13H215.70V286.21Q211.39 300.74 201.07 313.22Q190.74 325.70 174.85 333.42Q158.97 341.13 139.00 341.13Q115.39 341.13 96.90 330.81Q78.40 320.48 68.07 302.10Q57.75 283.72 57.75 260.11Q57.75 236.51 68.07 218.01Q78.40 199.52 96.78 189.19Q115.17 178.87 138.77 178.87Q167.36 178.87 187.00 192.71Q206.63 206.55 212.98 231.06Z M354.14 296.65Q354.14 316.62 340.19 328.31Q326.23 340.00 301.27 340.00H227.05V180.68H298.77Q323.05 180.68 336.78 191.80Q350.51 202.92 350.51 221.99Q350.51 236.06 343.14 245.36Q335.76 254.67 323.51 258.30Q337.35 261.25 345.75 272.03Q354.14 282.81 354.14 296.65ZM265.86 245.13H291.28Q300.81 245.13 305.92 240.94Q311.02 236.74 311.02 228.57Q311.02 220.40 305.92 216.09Q300.81 211.77 291.28 211.77H265.86ZM314.88 291.43Q314.88 283.04 309.32 278.27Q303.76 273.50 294.00 273.50H265.86V308.68H294.46Q304.22 308.68 309.55 304.26Q314.88 299.83 314.88 291.43Z" fill="#FFFFFF" stroke="#FFFFFF" stroke-width="4.57" stroke-linejoin="round"/><rect x="382.45" y="228.34" width="17.81" height="33.07" rx="7.48" fill="#3BC9FF"/><rect x="410.44" y="207.14" width="17.81" height="54.27" rx="7.48" fill="#3BC9FF"/><rect x="438.42" y="183.39" width="17.81" height="78.02" rx="7.48" fill="#3BC9FF"/></g><g transform="translate(270,164.00)"><path d="M71.90 -65.36Q69.31 -70.13 64.48 -72.65Q59.64 -75.17 53.11 -75.17Q41.80 -75.17 35.00 -67.74Q28.19 -60.32 28.19 -47.93Q28.19 -34.72 35.34 -27.30Q42.49 -19.88 55.01 -19.88Q63.59 -19.88 69.51 -24.24Q75.44 -28.60 78.16 -36.77H48.61V-53.92H99.27V-32.27Q96.68 -23.56 90.49 -16.07Q84.29 -8.58 74.76 -3.95Q65.23 0.68 53.24 0.68Q39.08 0.68 27.98 -5.51Q16.89 -11.71 10.69 -22.74Q4.49 -33.77 4.49 -47.93Q4.49 -62.09 10.69 -73.19Q16.89 -84.29 27.91 -90.49Q38.94 -96.68 53.11 -96.68Q70.26 -96.68 82.04 -88.37Q93.82 -80.07 97.63 -65.36Z M106.62 -96.41Q106.62 -101.86 110.50 -105.46Q114.38 -109.07 120.51 -109.07Q126.50 -109.07 130.38 -105.46Q134.26 -101.86 134.26 -96.41Q134.26 -91.10 130.38 -87.49Q126.50 -83.88 120.51 -83.88Q114.38 -83.88 110.50 -87.49Q106.62 -91.10 106.62 -96.41ZM132.09 -75.98V0.00H108.80V-75.98Z M221.82 -26.01Q221.82 -14.03 213.45 -7.01Q205.07 0.00 190.09 0.00H145.57V-95.59H188.60Q203.17 -95.59 211.40 -88.92Q219.64 -82.25 219.64 -70.81Q219.64 -62.37 215.22 -56.78Q210.79 -51.20 203.44 -49.02Q211.74 -47.25 216.78 -40.78Q221.82 -34.31 221.82 -26.01ZM168.85 -56.92H184.10Q189.82 -56.92 192.89 -59.44Q195.95 -61.96 195.95 -66.86Q195.95 -71.76 192.89 -74.35Q189.82 -76.94 184.10 -76.94H168.85ZM198.26 -29.14Q198.26 -34.18 194.93 -37.04Q191.59 -39.90 185.74 -39.90H168.85V-18.79H186.01Q191.86 -18.79 195.06 -21.45Q198.26 -24.10 198.26 -29.14Z M229.72 -96.41Q229.72 -101.86 233.60 -105.46Q237.48 -109.07 243.61 -109.07Q249.60 -109.07 253.48 -105.46Q257.36 -101.86 257.36 -96.41Q257.36 -91.10 253.48 -87.49Q249.60 -83.88 243.61 -83.88Q237.48 -83.88 233.60 -87.49Q229.72 -91.10 229.72 -96.41ZM255.18 -75.98V0.00H231.90V-75.98Z" fill="#FFFFFF"/><path d="M270.98 -28.60H295.76Q296.31 -23.29 299.44 -20.49Q302.57 -17.70 307.61 -17.70Q312.78 -17.70 315.78 -20.09Q318.77 -22.47 318.77 -26.69Q318.77 -30.23 316.39 -32.54Q314.01 -34.86 310.54 -36.36Q307.06 -37.86 300.66 -39.76Q291.40 -42.62 285.55 -45.48Q279.69 -48.34 275.47 -53.92Q271.25 -59.51 271.25 -68.49Q271.25 -81.84 280.92 -89.40Q290.59 -96.95 306.11 -96.95Q321.91 -96.95 331.57 -89.40Q341.24 -81.84 341.92 -68.36H316.73Q316.46 -72.99 313.33 -75.64Q310.20 -78.30 305.29 -78.30Q301.07 -78.30 298.49 -76.05Q295.90 -73.80 295.90 -69.58Q295.90 -64.95 300.26 -62.37Q304.61 -59.78 313.87 -56.78Q323.13 -53.65 328.92 -50.79Q334.71 -47.93 338.93 -42.49Q343.15 -37.04 343.15 -28.46Q343.15 -20.29 339.00 -13.62Q334.84 -6.94 326.94 -3.00Q319.05 0.95 308.29 0.95Q297.80 0.95 289.50 -2.45Q281.19 -5.86 276.22 -12.53Q271.25 -19.20 270.98 -28.60Z M387.54 -77.07Q401.84 -77.07 411.44 -69.58Q421.04 -62.09 424.03 -48.48H399.25Q396.12 -57.19 387.13 -57.19Q380.73 -57.19 376.92 -52.22Q373.11 -47.25 373.11 -37.99Q373.11 -28.73 376.92 -23.76Q380.73 -18.79 387.13 -18.79Q396.12 -18.79 399.25 -27.51H424.03Q421.04 -14.16 411.37 -6.54Q401.70 1.09 387.54 1.09Q376.37 1.09 367.73 -3.68Q359.08 -8.44 354.25 -17.29Q349.41 -26.14 349.41 -37.99Q349.41 -49.84 354.25 -58.69Q359.08 -67.54 367.73 -72.31Q376.37 -77.07 387.54 -77.07Z M428.39 -37.99Q428.39 -49.70 433.57 -58.62Q438.74 -67.54 447.73 -72.31Q456.71 -77.07 467.88 -77.07Q479.05 -77.07 488.03 -72.31Q497.02 -67.54 502.20 -58.62Q507.37 -49.70 507.37 -37.99Q507.37 -26.28 502.13 -17.36Q496.89 -8.44 487.83 -3.68Q478.77 1.09 467.61 1.09Q456.44 1.09 447.52 -3.68Q438.60 -8.44 433.50 -17.29Q428.39 -26.14 428.39 -37.99ZM483.68 -37.99Q483.68 -47.11 479.11 -52.02Q474.55 -56.92 467.88 -56.92Q461.07 -56.92 456.58 -52.09Q452.09 -47.25 452.09 -37.99Q452.09 -28.87 456.51 -23.97Q460.94 -19.06 467.61 -19.06Q474.28 -19.06 478.98 -23.97Q483.68 -28.87 483.68 -37.99Z M563.47 -76.80V-52.15H557.07Q548.36 -52.15 544.00 -48.41Q539.64 -44.66 539.64 -35.27V0.00H516.36V-75.98H539.64V-63.32Q543.73 -69.58 549.86 -73.19Q555.98 -76.80 563.47 -76.80Z M642.45 -32.41H589.75Q590.30 -25.33 594.31 -21.58Q598.33 -17.84 604.19 -17.84Q612.90 -17.84 616.31 -25.19H641.09Q639.18 -17.70 634.21 -11.71Q629.24 -5.72 621.75 -2.31Q614.26 1.09 605.00 1.09Q593.84 1.09 585.12 -3.68Q576.41 -8.44 571.51 -17.29Q566.60 -26.14 566.60 -37.99Q566.60 -49.84 571.44 -58.69Q576.27 -67.54 584.99 -72.31Q593.70 -77.07 605.00 -77.07Q616.03 -77.07 624.61 -72.44Q633.19 -67.81 638.03 -59.23Q642.86 -50.66 642.86 -39.22Q642.86 -35.95 642.45 -32.41ZM619.03 -45.34Q619.03 -51.34 614.94 -54.88Q610.86 -58.42 604.73 -58.42Q598.88 -58.42 594.86 -55.01Q590.84 -51.61 589.89 -45.34Z" fill="#3BC9FF"/></g></svg>